<?xml version="1.0" encoding="utf-8"?>
<!-- Generator: Adobe Illustrator 21.0.2, SVG Export Plug-In . SVG Version: 6.00 Build 0)  -->
<svg version="1.1" xmlns="http://www.w3.org/2000/svg" xmlns:xlink="http://www.w3.org/1999/xlink" x="0px" y="0px"
	 viewBox="0 0 1400 980" style="enable-background:new 0 0 1400 980;" xml:space="preserve">
<style type="text/css">
	.st0{fill:#14151F;}
	.st1{fill:#AEE1F9;}
	.st2{opacity:0.15;}
	.st3{fill:#907957;stroke:#000000;stroke-width:2;}
	.st4{fill:#E1CFBA;stroke:#000000;stroke-width:2;}
	.st5{fill:#FFF3C5;stroke:#000000;stroke-width:2;}
	.st6{fill:#FFFFFF;stroke:#000000;stroke-width:2;}
	.st7{fill:#A3C2CD;}
	.st8{fill:#007AB3;stroke:#000000;stroke-width:2;stroke-miterlimit:10;}
	.st9{fill:#F36E65;stroke:#000000;stroke-width:1.9861;stroke-miterlimit:10;}
	.st10{fill:#87B03F;stroke:#000000;stroke-width:2;}
	.st11{fill:#F26E21;stroke:#000000;stroke-width:2;}
	.st12{fill:#A44A24;stroke:#000000;stroke-width:2;}
	.st13{fill:none;stroke:#000000;stroke-width:2;stroke-linecap:round;}
	.st14{fill:#FBB116;stroke:#000000;stroke-width:2;stroke-miterlimit:10;}
	.st15{fill:#C45952;stroke:#000000;stroke-width:1.9861;stroke-miterlimit:10;}
	.st16{fill:#606E76;stroke:#000000;stroke-width:2;stroke-miterlimit:10;}
	.st17{fill:#C6D2DB;stroke:#000000;stroke-width:2;stroke-miterlimit:10;}
	.st18{fill:#D2DEE8;}
</style>
<g id="Layer_2">
	<rect x="0" y="0" class="st0" width="1400" height="980"/>
	<rect x="0" y="0" class="st1" width="1400" height="980"/>
</g>
<g id="Layer_2_1_">
	<rect x="107.9" y="76.3" class="st2" width="541.1" height="425.3"/>
	<rect x="85.8" y="62.1" class="st3" width="541.1" height="425.3"/>
	<rect x="114.3" y="84.8" class="st4" width="484.1" height="379.9"/>
	<g class="st2">
		<path d="M540.2,268l-87.3,23.2c-5.2,1.4-10.5-1.7-11.8-6.9L417.9,197c-1.4-5.2,1.7-10.5,6.9-11.8L512,162
			c5.2-1.4,10.5,1.7,11.8,6.9l23.2,87.3C548.4,261.3,545.4,266.6,540.2,268z"/>
		<path d="M460.8,211.7L460.8,211.7c-5.2,1.4-10.5-1.7-11.8-6.9l-4.8-18.2c-1.4-5.2,1.7-10.5,6.9-11.8l0,0
			c5.2-1.4,10.5,1.7,11.8,6.9l4.8,18.2C469.1,205,466,210.3,460.8,211.7z"/>
	</g>
	<g>
		<path class="st5" d="M537.5,264.7l-87.3,23.2c-5.2,1.4-10.5-1.7-11.8-6.9l-23.2-87.3c-1.4-5.2,1.7-10.5,6.9-11.8l87.3-23.2
			c5.2-1.4,10.5,1.7,11.8,6.9l23.2,87.3C545.8,258.1,542.7,263.4,537.5,264.7z"/>
		<path class="st6" d="M434.5,196.4L434.5,196.4c-5.2,1.4-10.5-1.7-11.8-6.9l-4.8-18.2c-1.4-5.2,1.7-10.5,6.9-11.8l0,0
			c5.2-1.4,10.5,1.7,11.8,6.9l4.8,18.2C442.8,189.8,439.7,195.1,434.5,196.4z"/>
	</g>
	<g>
		<path class="st5" d="M252.2,291.5l-81.9-38c-4.8-2.3-7-8-4.7-12.9l38-81.9c2.3-4.8,8-7,12.9-4.7l81.9,38c4.8,2.3,7,8,4.7,12.9
			l-38,81.9C262.8,291.6,257,293.7,252.2,291.5z"/>
		<path class="st6" d="M216.7,173.1L216.7,173.1c-4.8-2.3-7-8-4.7-12.9l7.9-17.1c2.3-4.8,8-7,12.9-4.7h0c4.8,2.3,7,8,4.7,12.9
			l-7.9,17.1C227.3,173.2,221.6,175.3,216.7,173.1z"/>
	</g>
	<g>
		<path class="st5" d="M388.7,425l-90.3,0.5c-5.3,0-9.7-4.3-9.7-9.6l-0.5-90.3c0-5.3,4.3-9.7,9.6-9.7l90.3-0.5
			c5.3,0,9.7,4.3,9.7,9.6l0.5,90.3C398.4,420.6,394.1,425,388.7,425z"/>
		<path class="st6" d="M306.3,333L306.3,333c-5.3,0-9.7-4.3-9.7-9.6l-0.1-18.8c0-5.3,4.3-9.7,9.6-9.7h0c5.3,0,9.7,4.3,9.7,9.6
			l0.1,18.8C315.9,328.6,311.6,332.9,306.3,333z"/>
	</g>
</g>
<g id="Layer_3">
	<g>
		<path class="st2" d="M904.6-7.8v525h525v-525H904.6z M1381.6,469.2h-429v-429h429V469.2z"/>
		<rect x="906.1" y="6.5" class="st7" width="483" height="471"/>
		<polygon class="st6" points="1387.3,224 1164.5,224 1164.5,1.2 1133,1.2 1133,224 910.2,224 910.2,255.5 1133,255.5 1133,478.2 
			1164.5,478.2 1164.5,255.5 1387.3,255.5 		"/>
		<path class="st6" d="M886.2-22.8v525h525v-525H886.2z M1363.3,454.2h-429v-429h429V454.2z"/>
	</g>
</g>
<g id="Layer_4">
	<g>
		<rect x="134.8" y="894.6" class="st8" width="88.9" height="429.9"/>
		<rect x="1192.4" y="894.6" class="st8" width="88.9" height="429.9"/>
		<rect x="44.8" y="815.5" class="st8" width="1326.5" height="103.3"/>
	</g>
	<path class="st9" d="M1003.6,879.2c0-9.4-7.7-17.1-17.1-17.1h-573c-9.4,0-17.1,7.7-17.1,17.1v303.6c0,9.4,7.7,17.1,17.1,17.1h573
		c9.4,0,17.1-7.7,17.1-17.1V879.2z"/>
</g>
<g id="Layer_7">
	<g>
		<path class="st10" d="M1253.7,644.6c0-27.5-22.3-49.7-49.7-49.7c-27.5,0-49.7,22.3-49.7,49.7c0,0.7,0,1.5,0.1,2.2h0v51.1h99.4
			v-51.1h-0.1C1253.6,646,1253.7,645.3,1253.7,644.6z"/>
		<polygon class="st11" points="1255.7,821.2 1152.2,821.2 1133.3,711.7 1274.6,711.7 		"/>
		<rect x="1126.8" y="697.8" class="st12" width="154.4" height="34.8"/>
		<g>
			<line class="st13" x1="1251.8" y1="637.8" x2="1256.4" y2="636.7"/>
			<line class="st13" x1="1251.8" y1="660.2" x2="1256.4" y2="659.1"/>
			<line class="st13" x1="1172.7" y1="606.5" x2="1170.3" y2="603"/>
			<line class="st13" x1="1216.2" y1="599.4" x2="1217.6" y2="593.2"/>
			<line class="st13" x1="1163.5" y1="629.9" x2="1156.4" y2="626.8"/>
			<line class="st13" x1="1196.7" y1="610" x2="1198" y2="603.8"/>
			<line class="st13" x1="1190.5" y1="658.7" x2="1186.7" y2="652.4"/>
			<line class="st13" x1="1186.1" y1="627.2" x2="1182.5" y2="623.1"/>
			<line class="st13" x1="1165.3" y1="659.6" x2="1161.7" y2="655.5"/>
			<line class="st13" x1="1235.8" y1="618.5" x2="1240.7" y2="614.1"/>
			<line class="st13" x1="1221.4" y1="671.8" x2="1226.3" y2="667.5"/>
			<line class="st13" x1="1253.7" y1="677.2" x2="1258.6" y2="677.2"/>
			<line class="st13" x1="1238.2" y1="688.9" x2="1243.1" y2="688.9"/>
			<line class="st13" x1="1226.3" y1="640.5" x2="1230.6" y2="638.6"/>
			<line class="st13" x1="1198" y1="681.7" x2="1203.9" y2="687"/>
			<line class="st13" x1="1168.1" y1="683.6" x2="1175.1" y2="685.7"/>
			<line class="st13" x1="1148.8" y1="676.1" x2="1155.7" y2="678.2"/>
			<line class="st13" x1="1150.7" y1="650.3" x2="1157.7" y2="652.4"/>
		</g>
	</g>
</g>
<g id="Layer_5">
	<g>
		<polygon class="st6" points="304.7,816.2 202.8,816.2 191,646.7 316.5,646.7 		"/>
		<polygon class="st14" points="201,686 208.4,809 299.1,809 306.5,686 		"/>
	</g>
	<polygon class="st9" points="207.3,613 151.2,583.5 146.5,592.4 198.7,619.7 214.9,685.7 225.2,685.7 	"/>
	<polygon class="st15" points="251.3,791.7 225.2,685.7 214.9,685.7 241.6,794.1 	"/>
</g>
<g id="Layer_6">
	<g>
		<polygon class="st16" points="535.9,753.6 880.1,753.6 888.9,792.9 527.1,792.9 		"/>
		<rect x="527.1" y="791" class="st6" width="361.8" height="25"/>
		<path class="st16" d="M1022.4,750.9c0,11.8-9.6,21.4-21.4,21.4H415.1c-11.8,0-21.4-9.6-21.4-21.4V404.4c0-11.8,9.6-21.4,21.4-21.4
			H1001c11.8,0,21.4,9.6,21.4,21.4V750.9z"/>
		<rect x="423" y="405.3" class="st17" width="570" height="316.5"/>
		<polygon class="st18" points="423,405.3 423,721.7 524.3,721.7 734.9,405.3 		"/>
		<circle class="st6" cx="708" cy="737.7" r="8.8"/>
	</g>
</g>
</svg>
