<svg id="Layer_3" data-name="Layer 3" xmlns="http://www.w3.org/2000/svg" viewBox="0 0 234.85 187.63"><defs><style>.cls-1{fill:#4d9dd9;}.cls-2{fill:#3f91d3;}.cls-3,.cls-4,.cls-6{fill:none;}.cls-3{stroke:#1c213d;stroke-width:19px;}.cls-3,.cls-6{stroke-miterlimit:10;}.cls-5{fill:#ff9824;}.cls-6{stroke:#ff9824;}</style></defs><title>LogoTransin</title><path class="cls-1" d="M143.33,282.58c-.36,15.53-.89,31.05-1,46.58-.06,11.93-.42,23.89,0,35.82l219-165.46c-69,0-137.92.63-206.89.65l-7,5.28C141.33,230.26,143.91,257.31,143.33,282.58Z" transform="translate(-130.8 -184.92)"/><path class="cls-2" d="M357.71,323.83q.12-23,1-46.08c.55-15.12,1.42-30.16,1.16-45.29-.13-7.47.1-15-.84-22.4-.55-4.37-1.31-8.71-1.71-13.07L134.33,365.4l1.6,2.12a5.08,5.08,0,0,1,.59-.15c21.36-3.89,42.88-2.25,64.39-1,47.38-.79,94.75-2.59,142.14-3l15.8-11.94C358.29,342.24,357.66,333.06,357.71,323.83Z" transform="translate(-130.8 -184.92)"/><g id="Layer_1" data-name="Layer 1"><rect class="cls-3" x="9.66" y="9.5" width="215.69" height="168.63" rx="5.67"/><path class="cls-4" d="M356.15,194.42" transform="translate(-130.8 -184.92)"/></g><path class="cls-5" d="M226.29,259.27V228.12L289,281.54l-62.72,53.84V304.11q-88.64-12.81-94.93-106.34c.22,2.15,1.37,8.79,7.19,20.75.22.4.45.8.67,1.18,22.87,39.74,80.72,39.66,86.32,39.57Z" transform="translate(-130.8 -184.92)"/><path class="cls-6" d="M138.55,218.52c.22.4.45.8.67,1.18,22.87,39.74,80.72,39.66,86.32,39.57" transform="translate(-130.8 -184.92)"/><path class="cls-6" d="M131.36,197.77c.22,2.15,1.37,8.79,7.19,20.75" transform="translate(-130.8 -184.92)"/><path class="cls-6" d="M131.3,197s0,.24,0,.71" transform="translate(-130.8 -184.92)"/><path class="cls-6" d="M226.29,304.11q-88.64-12.81-94.93-106.34a.15.15,0,0,1,0-.07c0-.24,0-.47,0-.71" transform="translate(-130.8 -184.92)"/><line class="cls-6" x1="95.49" y1="150.46" x2="95.49" y2="119.19"/><polyline class="cls-6" points="95.49 74.47 95.49 74.36 95.49 43.21"/><line class="cls-6" x1="95.49" y1="43.21" x2="158.21" y2="96.63"/><line class="cls-6" x1="95.49" y1="150.46" x2="158.21" y2="96.63"/></svg>