<?xml version="1.0" encoding="utf-8"?>
<!-- Svg Vector Icons : http://www.onlinewebfonts.com/icon -->
<!DOCTYPE svg PUBLIC "-//W3C//DTD SVG 1.1//EN" "http://www.w3.org/Graphics/SVG/1.1/DTD/svg11.dtd">
<svg version="1.1" xmlns="http://www.w3.org/2000/svg" xmlns:xlink="http://www.w3.org/1999/xlink" x="0px" y="0px" viewBox="0 0 1000 1000" enable-background="new 0 0 1000 1000" xml:space="preserve">
<metadata> Svg Vector Icons : http://www.onlinewebfonts.com/icon </metadata>
<g><path d="M769.3,522.8c0,0-106.8-108.9-254-108.9c-143.9,0-286,108.9-286,108.9l-79.9-33.3v97.8c12.6,4.3,21.8,15.9,21.8,29.9c0,14.2-9.4,25.8-22.1,30l23.6,105.3h-69.7l23.8-105.8c-11.4-4.9-19.5-16.2-19.5-29.4c0-13,7.8-24,18.9-29V479.7L10,431.3l511.1-229.4L990,434.2L769.3,522.8z M509.5,469c148.1,0,230.5,78.4,230.5,78.4v189.7c0,0-85.4,61-242.1,61c-156.8,0-214-61-214-61V547.4C283.9,547.4,361.4,469,509.5,469z M506.6,763.3c102.6,0,185.8-20.8,185.8-46.4c0-25.7-83.2-46.5-185.8-46.5c-102.6,0-185.9,20.8-185.9,46.5C320.7,742.5,403.9,763.3,506.6,763.3z"/></g>
</svg>