<?xml version="1.0" encoding="utf-8"?>
<!-- Svg Vector Icons : http://www.onlinewebfonts.com/icon -->
<!DOCTYPE svg PUBLIC "-//W3C//DTD SVG 1.1//EN" "http://www.w3.org/Graphics/SVG/1.1/DTD/svg11.dtd">
<svg version="1.1" xmlns="http://www.w3.org/2000/svg" xmlns:xlink="http://www.w3.org/1999/xlink" x="0px" y="0px" viewBox="0 0 1000 1000" enable-background="new 0 0 1000 1000" xml:space="preserve">
<metadata> Svg Vector Icons : http://www.onlinewebfonts.com/icon </metadata>
<g><path d="M500,731.5c-51.4,0-93,41.6-93,93c0,51.4,41.6,93,93,93c51.3,0,93-41.6,93-93C593,773.1,551.3,731.5,500,731.5z M500,512.8c-82.8,0-155.9,40.7-200.9,103.1l51.2,65.9c33.8-46.1,88.2-76.1,149.8-76.1s115.9,30,149.8,76.1l51.2-65.9C655.9,553.6,582.8,512.8,500,512.8z M153.5,445.6l58,74.7c70.9-79.4,173.8-129.6,288.6-129.6s217.7,50.2,288.6,129.6l57.9-74.7C759.1,354.5,636.2,297.7,500,297.7C363.8,297.7,240.9,354.5,153.5,445.6z M500,82.6C310.1,82.6,137.7,157,10,278l57.3,73.8C179,242.8,331.6,175.6,500,175.6s321,67.3,432.7,176.2L990,278C862.3,157,689.9,82.6,500,82.6z"/></g>
</svg>